<svg xmlns="http://www.w3.org/2000/svg" viewBox="0 0 800 300" role="img" aria-label="BridgePoint community workers">
  <defs><linearGradient id="sky" x1="0" y1="0" x2="1" y2="1"><stop stop-color="#76b8df"/><stop offset="1" stop-color="#244b70"/></linearGradient></defs>
  <rect width="800" height="300" rx="24" fill="url(#sky)"/><circle cx="650" cy="62" r="42" fill="#ffe6a6" opacity=".75"/><path d="M0 218c160-70 220 10 370-38 130-42 218 31 430-25v145H0z" fill="#326c56"/><path d="M0 250c140-42 230-7 350-36 176-43 312 34 450-7v93H0z" fill="#1d493d"/>
  <g transform="translate(95 84)"><circle cx="55" cy="43" r="30" fill="#9d5e3f"/><path d="M24 42c4-34 52-48 70-5l-8-2-12-20-43 4z" fill="#f0bf29"/><path d="M18 184c3-74 24-103 54-103s52 29 56 103z" fill="#1781bd"/><path d="M48 109l24 40 24-40" fill="none" stroke="#f1c26d" stroke-width="8"/></g>
  <g transform="translate(285 56)"><circle cx="55" cy="47" r="32" fill="#a96642"/><path d="M21 42c5-39 64-44 72 2l-17-7-18-20-31 27z" fill="#28384a"/><path d="M14 188c5-80 25-107 62-107s59 27 64 107z" fill="#115b9e"/><path d="M47 111l29 47 29-47" fill="none" stroke="#f2bf65" stroke-width="9"/></g>
  <g transform="translate(482 76)"><circle cx="52" cy="42" r="29" fill="#b8724d"/><path d="M22 38c12-38 59-37 67 4l-25-18-34 22z" fill="#263345"/><path d="M12 184c4-76 25-104 61-104s57 28 62 104z" fill="#e7a54c"/><path d="M45 108l28 43 27-43" fill="none" stroke="#fff" stroke-width="8"/></g>
  <g transform="translate(650 105)"><circle cx="38" cy="35" r="24" fill="#a96747"/><path d="M15 34c8-30 48-36 54 2l-29-16z" fill="#202b3c"/><path d="M4 176c5-65 18-88 44-88s41 23 46 88z" fill="#159b83"/></g>
</svg>
